<svg xmlns="http://www.w3.org/2000/svg" xmlns:xlink="http://www.w3.org/1999/xlink" width="534.28" height="93.98" viewBox="0 0 534.28 93.98"><defs><style>.a{fill:none;}.b{clip-path:url(#a);}.c{fill:#8a8b87;}.d{fill:#b30838;}</style><clipPath id="a" transform="translate(-38.86 -349.51)"><rect class="a" x="38.86" y="349.51" width="534.28" height="93.99"/></clipPath></defs><g class="b"><path class="c" d="M192.18,432.87c0,1.73.07,6.13,7,6.13,5,0,7.74-2.6,7.74-5.81,0-3.48-3.09-4.32-6.23-5.06-2.62-.65-3.95-.95-3.95-2.6,0-1.46,1.18-2.42,3-2.42a2.68,2.68,0,0,1,2.95,2.72h3.74a5.1,5.1,0,0,0-1-3.32c-1.36-1.67-3.59-2.09-5.48-2.09-5.06,0-7.19,2.59-7.19,5.53,0,3.09,2.36,4.35,6.68,5.41,2.32.55,3.45.82,3.45,2.4s-1.33,2.49-3.45,2.49c-3.34,0-3.29-2.54-3.29-3.38Zm17.4-6.77v7.76a5.66,5.66,0,0,0,.83,3.36,4.87,4.87,0,0,0,3.82,1.68,4.16,4.16,0,0,0,3.75-2l.13,1.66h3.62c0-.35-.08-.57-.1-.92s0-.64-.08-3.33V426.1h-3.82v6.3c0,2.13,0,3.88-2.39,3.88-2,0-2-1.66-2-2.74V426.1Zm15.37,0v17.27h3.79v-6.23a4.11,4.11,0,0,0,3.55,1.61c3.67,0,5.53-3.14,5.53-6.67,0-3.81-2-6.23-5.28-6.23a4.28,4.28,0,0,0-3.87,2l-.1-1.78Zm6.39,10.25c-2.75,0-2.77-3.16-2.77-3.9,0-3.36,1.71-4.25,2.92-4.25,2.19,0,2.56,2.54,2.56,4,0,2.47-1,4.12-2.71,4.12m9-10.25v17.27h3.79v-6.23a4.11,4.11,0,0,0,3.55,1.61c3.67,0,5.53-3.14,5.53-6.67,0-3.81-2-6.23-5.28-6.23a4.29,4.29,0,0,0-3.88,2l-.1-1.78Zm6.38,10.25c-2.74,0-2.77-3.16-2.77-3.9,0-3.36,1.72-4.25,2.92-4.25,2.19,0,2.57,2.54,2.57,4,0,2.47-1,4.12-2.72,4.12m9.11,2.23h3.72V420.71h-3.72Zm5.71-12.48,4.87,12.52-1.6,4.7h3.74l1.54-5,4.8-12.25h-3.7l-2.84,8.65-2.79-8.65Zm13.1,12.48h3.19v-3.29h-3.19Zm13.13,0h5.66a17.59,17.59,0,0,0,3.27-.2c3.44-.62,6.44-3.48,6.44-9a8.46,8.46,0,0,0-3.1-7c-2.18-1.58-5.25-1.6-6.26-1.6l-6,0Zm3.95-14.93a12.76,12.76,0,0,1,4.07.25c2.44.66,3.32,3,3.32,5.51,0,.87-.1,3.53-1.63,5-1.13,1.11-2.57,1.24-4.23,1.24-.45,0-1.11,0-1.53-.05Zm25.73,9.61a9.21,9.21,0,0,0-.76-4.57,5.46,5.46,0,0,0-5.13-3,6.39,6.39,0,0,0-3.57,1,8,8,0,0,0-1,10.77,6.4,6.4,0,0,0,4.48,1.55,6.26,6.26,0,0,0,4.45-1.45,4.16,4.16,0,0,0,1.21-2.72h-3.39a2.09,2.09,0,0,1-2.22,1.73c-2.59,0-2.59-2.52-2.59-3.34ZM309,431c.07-1.46.75-2.8,2.39-2.8,2.16,0,2.21,2.23,2.21,2.8Zm10.86,7.61h3.72V420.71h-3.72Zm6.87-14.66h4v-3.18h-4Zm.13,14.66h3.72V426.07h-3.72Zm5.53-12.48,4.65,12.48h4.12l4.58-12.48h-3.6l-2.91,8.47-2.87-8.47Zm26.46,7.16a9.09,9.09,0,0,0-.76-4.57,5.45,5.45,0,0,0-5.13-3,6.39,6.39,0,0,0-3.57,1,6.8,6.8,0,0,0-2.64,5.9,6.72,6.72,0,0,0,1.64,4.87,6.36,6.36,0,0,0,4.47,1.55,6.27,6.27,0,0,0,4.46-1.45,4.13,4.13,0,0,0,1.2-2.72h-3.39A2.07,2.07,0,0,1,353,436.6c-2.6,0-2.6-2.52-2.6-3.34Zm-8.4-2.29c.07-1.46.75-2.8,2.39-2.8,2.16,0,2.21,2.23,2.21,2.8Zm10.87,7.61h3.72v-6.16c0-1.55.22-3.45,4-3.11V426c-3-.14-3.84,1.36-4.32,2.43l-.08-2.4h-3.49c.07.72.18,2.52.18,3.11Zm8.5-12.48,4.88,12.52-1.62,4.7h3.75l1.53-5,4.81-12.25h-3.7l-2.84,8.65-2.79-8.65ZM383,438.58h3.19v-3.29H383Zm13,0h3.64V423.26l4.85,15.32h3.22l5-15.32v15.32h3.87V420.71h-6.18l-4.15,13-3.85-13H396Zm34.85,0a14.68,14.68,0,0,1-.3-3.17l0-5a4.86,4.86,0,0,0-.88-3.07c-1.25-1.43-3.47-1.6-4.52-1.6a6.78,6.78,0,0,0-3.85,1,3.46,3.46,0,0,0-1.43,2.94h3.64a1.84,1.84,0,0,1,.28-1.11,1.71,1.71,0,0,1,1.41-.69,1.72,1.72,0,0,1,1.66,1,4.81,4.81,0,0,1,.17,1.65,13.52,13.52,0,0,0-5,.69,4.16,4.16,0,0,0-2.69,3.88,3.88,3.88,0,0,0,1.11,2.75,5,5,0,0,0,7-1,10.36,10.36,0,0,0,.12,1.71ZM427,432.69a4.58,4.58,0,0,1-.7,3.1,2.12,2.12,0,0,1-1.58.71,1.74,1.74,0,0,1-1.82-1.78c0-1.48,1.72-2.22,4.1-2m6.9,5.89h3.74v-7.32a3.42,3.42,0,0,1,.45-1.9,2.36,2.36,0,0,1,1.94-1,1.92,1.92,0,0,1,1.81,1.07,2.94,2.94,0,0,1,.2,1.36v7.76h3.8v-6.75a10.32,10.32,0,0,0-.35-3.73,3.87,3.87,0,0,0-3.87-2.35,4.41,4.41,0,0,0-4.13,2.18l-.1-1.88h-3.57c.08.86.08,2.22.08,2.27Zm26.3,0a14.68,14.68,0,0,1-.3-3.17l0-5a4.86,4.86,0,0,0-.88-3.07c-1.25-1.43-3.47-1.6-4.52-1.6a6.78,6.78,0,0,0-3.85,1,3.46,3.46,0,0,0-1.43,2.94h3.64a1.84,1.84,0,0,1,.28-1.11,1.69,1.69,0,0,1,1.41-.69,1.72,1.72,0,0,1,1.66,1,4.77,4.77,0,0,1,.18,1.65,13.47,13.47,0,0,0-5,.69,4.15,4.15,0,0,0-2.7,3.88,3.88,3.88,0,0,0,1.11,2.75,5,5,0,0,0,7-1,10.36,10.36,0,0,0,.12,1.71Zm-3.84-5.89a4.58,4.58,0,0,1-.71,3.1,2.14,2.14,0,0,1-1.58.71,1.74,1.74,0,0,1-1.82-1.78c0-1.48,1.71-2.22,4.11-2m15.39-6.54-.13,1.65A3.87,3.87,0,0,0,468,426c-3.64,0-5.43,3-5.43,6.18s1.71,6.13,5.36,6.13a4,4,0,0,0,3.42-1.7,13.36,13.36,0,0,1-.18,3,2.16,2.16,0,0,1-2.31,1.63c-2,0-2.17-1.36-2.22-1.73h-3.56c.22,3.78,3.77,4,5.58,4,2.44,0,6.33-.44,6.33-5v-9.22a27.36,27.36,0,0,1,.18-3.08Zm-5.39,6.05c0-2.67,1.16-3.73,2.57-3.73,2.26,0,2.54,2.4,2.54,3.81,0,.54,0,3.55-2.62,3.55s-2.49-3-2.49-3.63m23.22,1.06a9.18,9.18,0,0,0-.75-4.57,5.47,5.47,0,0,0-5.13-3,6.37,6.37,0,0,0-3.57,1,8,8,0,0,0-1,10.77,6.38,6.38,0,0,0,4.48,1.55,6.26,6.26,0,0,0,4.45-1.45,4.16,4.16,0,0,0,1.21-2.72h-3.4a2.07,2.07,0,0,1-2.21,1.73c-2.6,0-2.6-2.52-2.6-3.34Zm-8.4-2.29c.07-1.46.76-2.8,2.39-2.8,2.17,0,2.22,2.23,2.22,2.8Zm10.94,7.61h3.75v-7.34c0-.84,0-2.82,2.34-2.82,2.06,0,2.09,1.78,2.09,2.74v7.42H504v-6.26c0-1.85.05-3.9,2.29-3.9,1.94,0,2.14,1.48,2.14,2.82v7.34h3.74v-7.05a7.06,7.06,0,0,0-.62-3.68,4.19,4.19,0,0,0-3.87-2,4.24,4.24,0,0,0-4.08,2.32c-.25-.59-1.08-2.34-4-2.34a4.4,4.4,0,0,0-3.93,1.87l-.13-1.6H492a22.92,22.92,0,0,1,.12,2.34Zm35.19-5.32a9.09,9.09,0,0,0-.76-4.57,5.45,5.45,0,0,0-5.13-3,6.39,6.39,0,0,0-3.57,1,8,8,0,0,0-1,10.77,6.4,6.4,0,0,0,4.48,1.55,6.26,6.26,0,0,0,4.45-1.45,4.16,4.16,0,0,0,1.21-2.72h-3.39a2.08,2.08,0,0,1-2.22,1.73c-2.59,0-2.59-2.52-2.59-3.34ZM518.86,431c.08-1.46.76-2.8,2.4-2.8,2.16,0,2.21,2.23,2.21,2.8Zm10.93,7.61h3.74v-7.32a3.34,3.34,0,0,1,.45-1.9,2.35,2.35,0,0,1,1.94-1,1.93,1.93,0,0,1,1.81,1.07,2.94,2.94,0,0,1,.2,1.36v7.76h3.8v-6.75a10.32,10.32,0,0,0-.35-3.73,3.88,3.88,0,0,0-3.88-2.35,4.4,4.4,0,0,0-4.12,2.18l-.1-1.88h-3.57c.08.86.08,2.22.08,2.27ZM552.57,436a9.65,9.65,0,0,1-1.26.07c-1.66,0-1.66-.72-1.69-1.86v-5.65h3v-2.42h-3v-3.78l-3.69,1.33v2.45h-2.44v2.42h2.44v6.87c0,1,0,3.36,3.74,3.36a11.88,11.88,0,0,0,2.9-.4Zm2.54,2.57h3.19v-3.29h-3.19Z" transform="translate(-38.86 -349.51)"/><path class="d" d="M48.6,351.49H67.93c5.46,0,12.56.63,16.63,4.21,5.8,5.11,6,13.46,4.59,21-2.15,11.22-7,19.49-17,23.49-5.08,2-10.66,2-13.83,2H38.86Zm5.13,40.87h5.45c8.45-.07,14.61-4.06,16.87-15.84,3-15.36-7.44-15.36-11.31-15.36l-5-.07Z" transform="translate(-38.86 -349.51)"/></g><polygon class="d" points="62.41 1.98 75.47 1.98 65.73 52.6 52.67 52.6 62.41 1.98"/><polygon class="d" points="84.86 2.12 119.23 2.12 117.37 11.8 95.56 11.8 93.53 22.31 114.08 22.31 112.22 31.99 91.67 31.99 89.6 42.78 111.91 42.78 110.03 52.6 75.15 52.6 84.86 2.12"/><g class="b"><path class="d" d="M170.8,386c-.32,2-1.32,7.85,6.23,7.85,1.08,0,6.78,0,7.89-5.74.46-2.39-.12-4-3-4.91L171.33,380c-3-.91-10.72-3.29-8.68-13.88,1.58-8.2,8.63-15.84,22.32-15.84,17.88,0,16.58,10.73,15.61,16.12H187.7c.3-1.54,1.42-7-4.67-7a6.88,6.88,0,0,0-7.05,5.33c-.71,3.71,1.9,4.63,3.63,5.19l8.09,2.45c5.75,1.76,12.57,3.86,10.51,14.58-2.17,11.29-11.89,16.34-23.37,16.34-4.75,0-12.27-.84-15.45-6-2.58-4.07-1.69-9-1.33-11.22Z" transform="translate(-38.86 -349.51)"/></g><polygon class="d" points="173.81 2.12 208.18 2.12 206.31 11.8 184.5 11.8 182.48 22.31 203.02 22.31 201.16 31.99 180.62 31.99 178.54 42.78 200.86 42.78 198.97 52.6 164.1 52.6 173.81 2.12"/><polygon class="d" points="216.77 1.98 229.64 1.98 221.82 42.65 242.37 42.65 240.45 52.6 207.03 52.6 216.77 1.98"/><g class="b"><path class="d" d="M312.06,351.49H331.4c5.46,0,12.56.63,16.63,4.21,5.8,5.11,6,13.46,4.59,21-2.16,11.22-7,19.49-17,23.49-5.07,2-10.65,2-13.82,2H302.33Zm5.14,40.87h5.45c8.45-.07,14.61-4.06,16.87-15.84,3-15.36-7.44-15.36-11.31-15.36l-5-.07Z" transform="translate(-38.86 -349.51)"/></g><polygon class="d" points="325.87 1.98 338.94 1.98 329.2 52.6 316.14 52.6 325.87 1.98"/><g class="b"><path class="d" d="M387.1,351.49h21.18c8.24,0,11.24.56,13.37,3.65,1.1,1.54,2.33,4.34,1.28,9.81s-3.55,7.92-6,9.39a18.61,18.61,0,0,1-7.47,2.6l-.06.28c8.82.28,8.5,4.63,8,12.41-.21,3.43-.63,8.9-.24,12.48H403.42a85.74,85.74,0,0,1,.68-11.43c.6-6.1.84-8.34-4.87-8.34h-5.32l-3.8,19.77H377.36Zm8.56,21.73h4.76c2.79,0,4.18,0,5.34-.42,3-1,4.16-4.13,4.47-5.75,1.2-6.24-3.75-6.24-7.42-6.24h-4.76Z" transform="translate(-38.86 -349.51)"/></g><polygon class="d" points="395.1 2.12 429.46 2.12 427.6 11.8 405.79 11.8 403.77 22.31 424.31 22.31 422.45 31.99 401.91 31.99 399.83 42.78 422.15 42.78 420.26 52.6 385.39 52.6 395.1 2.12"/><g class="b"><path class="d" d="M502.37,367.4c.41-5.11-2.46-7-6.07-7-7.67,0-11.52,7.79-13.3,17-.59,3.08-3,15.85,6.85,15.85,6.72,0,8.45-5.4,9.08-7.37h13.19c-3.11,15.85-17.95,17.18-23.91,17.18-4.44,0-12.14-.84-16.07-6.73s-3.22-13.95-2.21-19.21c1.34-6.94,4.13-13.88,9.48-19.28,5.83-5.89,12.15-7.43,18.8-7.43,7.42,0,12.69,2,15.49,6.17s2,8.9,1.73,10.79Z" transform="translate(-38.86 -349.51)"/></g><polygon class="d" points="494.36 12.01 480.41 12.01 482.34 1.98 523.36 1.98 521.43 12.01 507.17 12.01 499.36 52.6 486.55 52.6 494.36 12.01"/><g class="b"><path class="d" d="M568.49,353.17h.69a.6.6,0,0,0,.68-.63c0-.6-.42-.6-.65-.6h-.72Zm-.85-1.94h1.54c.53,0,1.57,0,1.57,1.17a1,1,0,0,1-.85,1.08c.62,0,.66.43.74,1a4.38,4.38,0,0,0,.24,1.16h-1c0-.21-.17-1.33-.17-1.39-.07-.25-.15-.38-.47-.38h-.78v1.77h-.87Zm-1.85,2.2a3.32,3.32,0,0,0,3.34,3.3,3.3,3.3,0,1,0,0-6.59,3.31,3.31,0,0,0-3.34,3.29m7.35,0a4,4,0,1,1-4-3.93,4,4,0,0,1,4,3.93" transform="translate(-38.86 -349.51)"/></g></svg>